<?xml version="1.0" encoding="UTF-8"?>
<svg id="Layer_2" data-name="Layer 2" xmlns="http://www.w3.org/2000/svg" viewBox="0 0 182.48 63.45">
  <defs>
    <style>
      .cls-1 {
        fill-rule: evenodd;
      }

      .cls-1, .cls-2 {
        fill: #e51e27;
      }

      .cls-3 {
        fill: #333132;
      }
    </style>
  </defs>
  <g id="Layer_1-2" data-name="Layer 1">
    <g>
      <g>
        <path class="cls-3" d="M2.96,63.38H1v-.46l.58-.2v-3.55l-.58-.2v-.46h1.96v.46l-.58.2v3.55l.58.2v.46Z"/>
        <path class="cls-3" d="M9.49,63.38h-.98l-2.38-3.87h-.03c0,.13.02.26.02.41,0,.15.01.3.02.46s.01.32.01.48v2.51h-.72v-4.85h.97l2.37,3.84h.03c0-.11-.01-.24-.02-.38s-.01-.3-.02-.46c0-.16-.01-.31-.01-.46v-2.54h.73v4.85Z"/>
        <path class="cls-3" d="M13.94,63.38h-1.96v-.46l.58-.2v-3.55l-.58-.2v-.46h1.96v.46l-.58.2v3.55l.58.2v.46Z"/>
        <path class="cls-3" d="M18.11,63.38h-.8v-4.16h-1.43v-.69h3.65v.69h-1.42v4.16Z"/>
        <path class="cls-3" d="M23.43,63.38h-1.96v-.46l.58-.2v-3.55l-.58-.2v-.46h1.96v.46l-.58.2v3.55l.58.2v.46Z"/>
        <path class="cls-3" d="M28.93,63.38l-.49-1.34h-1.83l-.49,1.34h-.84l1.81-4.87h.88l1.81,4.87h-.85ZM27.78,60.08s-.04-.13-.08-.25c-.03-.11-.07-.23-.1-.35-.03-.12-.06-.22-.08-.29-.02.09-.04.2-.07.31-.03.11-.06.22-.09.32-.03.1-.05.18-.07.25l-.46,1.28h1.39l-.45-1.28Z"/>
        <path class="cls-3" d="M33.23,63.38h-.8v-4.16h-1.43v-.69h3.65v.69h-1.42v4.16Z"/>
        <path class="cls-3" d="M38.55,63.38h-1.96v-.46l.58-.2v-3.55l-.58-.2v-.46h1.96v.46l-.58.2v3.55l.58.2v.46Z"/>
        <path class="cls-3" d="M44.63,58.53l-1.7,4.85h-.84l-1.69-4.85h.82l1.01,3.01c.04.1.07.21.11.33.04.13.07.25.1.38.03.13.06.24.07.35.02-.11.04-.23.07-.35.03-.13.07-.25.11-.38.04-.13.07-.24.11-.34l1.01-3h.83Z"/>
        <path class="cls-3" d="M49.61,63.38h-2.74v-4.85h2.74v.67h-1.95v1.31h1.83v.67h-1.83v1.51h1.95v.68Z"/>
        <path class="cls-3" d="M57.07,58.53c.63,0,1.1.09,1.41.28.31.19.46.49.46.92,0,.2-.04.37-.11.52-.07.15-.17.27-.31.36s-.29.16-.46.19v.03c.19.03.36.09.51.17s.28.2.37.36.14.36.14.61c0,.29-.07.55-.21.75-.14.21-.34.37-.6.48-.26.11-.57.16-.92.16h-1.76v-4.85h1.47ZM57.16,60.54c.36,0,.61-.06.75-.18s.2-.3.2-.52-.08-.39-.24-.5c-.16-.1-.42-.16-.78-.16h-.68v1.36h.75ZM56.4,61.18v1.56h.84c.38,0,.64-.08.78-.22s.22-.34.22-.58c0-.15-.03-.28-.09-.39-.06-.11-.17-.2-.33-.26s-.36-.09-.62-.09h-.79Z"/>
        <path class="cls-3" d="M63.05,60.75l1.14-2.22h.87l-1.61,2.96v1.89h-.81v-1.85l-1.61-3h.88l1.14,2.22Z"/>
        <path class="cls-3" d="M73.67,63.38l-.49-1.34h-1.83l-.49,1.34h-.84l1.81-4.87h.88l1.81,4.87h-.85ZM72.52,60.08s-.04-.13-.08-.25c-.03-.11-.07-.23-.1-.35-.03-.12-.06-.22-.08-.29-.02.09-.04.2-.07.31-.03.11-.06.22-.09.32-.03.1-.05.18-.07.25l-.46,1.28h1.39l-.45-1.28Z"/>
        <path class="cls-3" d="M80.81,63.38h-.98l-2.38-3.87h-.03c0,.13.02.26.02.41,0,.15.01.3.02.46s.01.32.01.48v2.51h-.72v-4.85h.97l2.37,3.84h.03c0-.11-.01-.24-.02-.38s-.01-.3-.02-.46c0-.16-.01-.31-.01-.46v-2.54h.73v4.85Z"/>
        <path class="cls-3" d="M86.48,62.07c0,.29-.07.53-.21.74-.14.21-.34.37-.6.48-.26.11-.58.17-.94.17-.17,0-.34-.01-.5-.03-.16-.02-.32-.05-.46-.09-.14-.04-.27-.08-.38-.14v-.75c.19.09.41.17.66.23.24.07.49.11.74.11.21,0,.38-.03.52-.08.14-.06.24-.13.3-.23.07-.1.1-.21.1-.35,0-.14-.04-.26-.11-.36-.07-.1-.19-.19-.34-.27-.15-.09-.35-.18-.6-.27-.17-.07-.32-.14-.47-.22-.15-.08-.27-.18-.38-.29s-.2-.25-.26-.39c-.06-.15-.1-.33-.1-.53,0-.28.07-.51.2-.7.13-.19.32-.34.56-.45.24-.1.52-.16.84-.16.26,0,.5.03.73.08.23.05.44.13.65.22l-.25.65c-.19-.08-.38-.15-.57-.2-.19-.05-.38-.07-.58-.07-.17,0-.31.03-.42.08-.12.05-.2.12-.26.21-.06.09-.09.2-.09.32,0,.14.03.26.1.35.07.09.17.18.32.26.15.08.34.17.58.27.27.11.49.23.68.35.19.12.33.27.43.44.1.17.15.38.15.64Z"/>
        <path class="cls-3" d="M92.84,63.38h-.79v-2.19h-2.23v2.19h-.79v-4.85h.79v1.98h2.23v-1.98h.79v4.85Z"/>
        <path class="cls-3" d="M99.52,61.67c0,.34-.07.64-.21.91-.14.27-.35.48-.64.64s-.65.23-1.09.23c-.62,0-1.09-.16-1.42-.49-.32-.33-.49-.76-.49-1.3v-3.12h.79v3.06c0,.4.1.69.29.89.19.19.47.29.85.29.27,0,.48-.05.65-.14.16-.09.28-.23.36-.4.08-.18.12-.39.12-.64v-3.06h.79v3.14Z"/>
        <path class="cls-3" d="M107.17,58.46c.25,0,.47.04.66.13s.33.2.44.36c.11.15.16.34.16.57,0,.3-.09.55-.28.75-.19.2-.42.39-.69.55l1.14,1.11c.11-.15.2-.31.27-.49.07-.18.13-.36.18-.56h.81c-.07.28-.17.55-.29.81-.12.27-.27.51-.46.73l.99.96h-1l-.5-.48c-.14.11-.28.21-.44.29-.16.08-.33.15-.51.19-.18.05-.39.07-.61.07-.34,0-.63-.05-.88-.16s-.43-.26-.56-.47-.2-.44-.2-.72c0-.23.04-.43.12-.6.08-.17.19-.32.34-.44.15-.13.32-.25.53-.37-.11-.12-.2-.24-.28-.36-.08-.12-.14-.25-.19-.37-.05-.13-.07-.27-.07-.41,0-.23.05-.42.16-.58s.26-.29.47-.38.44-.13.7-.13ZM106.84,61.18c-.13.08-.24.16-.33.25-.09.08-.16.17-.21.27s-.07.22-.07.35c0,.22.08.4.23.53s.36.2.61.2c.22,0,.42-.04.59-.11.17-.07.32-.15.44-.25l-1.27-1.24ZM107.15,59.08c-.16,0-.29.04-.4.12s-.17.21-.17.38c0,.14.04.27.11.39.07.12.17.25.31.39.24-.13.41-.26.52-.38.11-.12.16-.26.16-.43,0-.15-.05-.27-.15-.35s-.23-.13-.37-.13Z"/>
        <path class="cls-3" d="M118.71,63.38l-.49-1.34h-1.83l-.49,1.34h-.84l1.81-4.87h.88l1.81,4.87h-.85ZM117.56,60.08s-.04-.13-.08-.25c-.03-.11-.07-.23-.1-.35-.03-.12-.06-.22-.08-.29-.02.09-.04.2-.07.31-.03.11-.06.22-.09.32-.03.1-.05.18-.07.25l-.46,1.28h1.39l-.45-1.28Z"/>
        <path class="cls-3" d="M124.6,62.07c0,.29-.07.53-.21.74s-.34.37-.6.48c-.26.11-.58.17-.94.17-.17,0-.34-.01-.5-.03-.16-.02-.32-.05-.46-.09-.14-.04-.27-.08-.38-.14v-.75c.19.09.41.17.66.23.24.07.49.11.74.11.21,0,.38-.03.52-.08.14-.06.24-.13.3-.23s.1-.21.1-.35c0-.14-.04-.26-.11-.36-.07-.1-.19-.19-.34-.27s-.35-.18-.6-.27c-.17-.07-.32-.14-.47-.22-.15-.08-.27-.18-.38-.29-.11-.11-.2-.25-.26-.39s-.09-.33-.09-.53c0-.28.07-.51.2-.7s.32-.34.56-.45c.24-.1.52-.16.84-.16.26,0,.5.03.73.08.23.05.44.13.65.22l-.25.65c-.19-.08-.38-.15-.57-.2-.19-.05-.38-.07-.58-.07-.17,0-.31.03-.42.08s-.2.12-.26.21-.09.2-.09.32c0,.14.03.26.1.35.07.09.17.18.32.26.14.08.34.17.58.27.27.11.49.23.68.35.19.12.33.27.43.44.1.17.15.38.15.64Z"/>
        <path class="cls-3" d="M130.96,63.38h-.79v-2.19h-2.24v2.19h-.79v-4.85h.79v1.98h2.24v-1.98h.79v4.85Z"/>
        <path class="cls-3" d="M135.41,63.38h-1.96v-.46l.58-.2v-3.55l-.58-.2v-.46h1.96v.46l-.58.2v3.55l.58.2v.46Z"/>
        <path class="cls-3" d="M140.69,62.07c0,.29-.07.53-.21.74s-.34.37-.6.48c-.26.11-.58.17-.94.17-.17,0-.34-.01-.5-.03-.16-.02-.32-.05-.46-.09-.14-.04-.27-.08-.38-.14v-.75c.19.09.41.17.66.23.24.07.49.11.74.11.21,0,.38-.03.52-.08.14-.06.24-.13.3-.23s.1-.21.1-.35c0-.14-.04-.26-.11-.36-.07-.1-.19-.19-.34-.27s-.35-.18-.6-.27c-.17-.07-.32-.14-.47-.22-.15-.08-.27-.18-.38-.29-.11-.11-.2-.25-.26-.39s-.09-.33-.09-.53c0-.28.07-.51.2-.7s.32-.34.56-.45c.24-.1.52-.16.84-.16.26,0,.5.03.73.08.23.05.44.13.65.22l-.25.65c-.19-.08-.38-.15-.57-.2-.19-.05-.38-.07-.58-.07-.17,0-.31.03-.42.08s-.2.12-.26.21-.09.2-.09.32c0,.14.03.26.1.35.07.09.17.18.32.26.14.08.34.17.58.27.27.11.49.23.68.35.19.12.33.27.43.44.1.17.15.38.15.64Z"/>
        <path class="cls-3" d="M147.05,63.38h-.79v-2.19h-2.23v2.19h-.79v-4.85h.79v1.98h2.23v-1.98h.79v4.85Z"/>
        <path class="cls-3" d="M156.3,63.38l-.49-1.34h-1.83l-.49,1.34h-.84l1.81-4.87h.88l1.81,4.87h-.85ZM155.15,60.08s-.04-.13-.08-.25c-.03-.11-.07-.23-.1-.35-.03-.12-.06-.22-.08-.29-.02.09-.04.2-.07.31s-.06.22-.09.32c-.03.1-.05.18-.07.25l-.46,1.28h1.39l-.45-1.28Z"/>
        <path class="cls-3" d="M160.79,58.53c.41,0,.75.05,1.02.16s.47.26.6.46c.13.21.2.46.2.77,0,.24-.04.44-.13.61s-.2.31-.34.42c-.14.11-.29.2-.46.26l1.36,2.16h-.93l-1.13-1.94h-.79v1.94h-.81v-4.85h1.41ZM160.75,59.19h-.57v1.61h.59c.34,0,.59-.07.76-.21.17-.14.25-.35.25-.63,0-.19-.04-.33-.11-.45-.07-.11-.18-.19-.34-.25-.15-.05-.35-.08-.59-.08Z"/>
        <path class="cls-3" d="M169.62,60.95c0,.38-.05.72-.14,1.02s-.24.57-.42.79c-.19.22-.42.39-.71.51-.28.12-.62.18-1,.18s-.73-.06-1.01-.18c-.29-.12-.52-.29-.71-.51s-.33-.48-.42-.79c-.09-.31-.14-.65-.14-1.03,0-.5.08-.93.25-1.31.17-.37.42-.66.75-.87.34-.21.76-.31,1.28-.31s.92.1,1.26.31c.33.21.59.5.75.87.17.37.25.81.25,1.31ZM165.92,60.95c0,.38.05.7.15.97s.26.48.47.62c.21.14.48.22.81.22s.6-.07.81-.22c.21-.15.36-.35.46-.62.1-.27.15-.6.15-.97,0-.57-.11-1.01-.34-1.33-.22-.32-.58-.48-1.08-.48-.33,0-.6.07-.82.22-.21.15-.37.35-.47.62s-.15.59-.15.97Z"/>
        <path class="cls-3" d="M173.64,58.53c.41,0,.75.05,1.02.16s.47.26.6.46c.13.21.2.46.2.77,0,.24-.04.44-.13.61s-.2.31-.34.42c-.14.11-.29.2-.46.26l1.36,2.16h-.93l-1.13-1.94h-.79v1.94h-.81v-4.85h1.41ZM173.6,59.19h-.57v1.61h.59c.34,0,.59-.07.76-.21.17-.14.25-.35.25-.63,0-.19-.04-.33-.11-.45-.07-.11-.18-.19-.34-.25-.15-.05-.35-.08-.59-.08Z"/>
        <path class="cls-3" d="M181.18,63.38l-.49-1.34h-1.83l-.49,1.34h-.84l1.81-4.87h.88l1.81,4.87h-.85ZM180.03,60.08s-.04-.13-.08-.25c-.03-.11-.07-.23-.1-.35s-.06-.22-.08-.29c-.02.09-.04.2-.07.31-.03.11-.06.22-.09.32s-.05.18-.07.25l-.46,1.28h1.39l-.45-1.28Z"/>
      </g>
      <g>
        <g>
          <path class="cls-2" d="M21.44,28.68h-6.26l-.92-2.62h-7.07l-.92,2.62H0L6.41,10.42h8.62l6.41,18.26ZM12.7,21.62l-1.98-5.64-1.98,5.64h3.96Z"/>
          <path class="cls-2" d="M40.32,18.3v10.38h-2.36l-1.1-1.34c-1.72,1.24-3.89,1.79-6.1,1.79-4.87,0-10.02-2.64-10.02-9.58s5.15-9.58,10.02-9.58c3.7,0,7.57,1.53,9.21,5.31l-5.47,2.28c-.67-1.84-2.28-2.47-3.74-2.47-1.89,0-4.06,1.07-4.06,4.46s2.16,4.46,4.06,4.46c1.07,0,2.23-.34,3.04-1.26h-3.47v-4.44h9.99Z"/>
          <path class="cls-2" d="M60.37,28.68h-6.29l-2.61-4.92c-.54.03-1.1.05-1.67.05h-1.65v4.87h-6.06V10.42h7.71c5.08,0,9.37,1.18,9.37,6.7,0,2.46-.85,4.06-2.25,5.07l3.45,6.49ZM53.21,17.12c0-.81-.55-1.58-2.02-1.58h-3.04v3.16h3.04c1.47,0,2.02-.77,2.02-1.58Z"/>
          <path class="cls-2" d="M81.86,28.68h-6.26l-.92-2.62h-7.07l-.92,2.62h-6.26l6.41-18.26h8.62l6.41,18.26ZM73.12,21.62l-1.98-5.64-1.98,5.64h3.96Z"/>
          <path class="cls-2" d="M100.97,10.42v18.26h-6.06l-6.12-9.6v9.6h-6.06V10.42h6.06s6.12,9.6,6.12,9.6v-9.6h6.06Z"/>
          <path class="cls-2" d="M119.32,23.57v5.12h-16.26V10.42h15.67v5.12h-9.61v1.57h8.86v4.44h-8.86v2.02h10.2Z"/>
          <path class="cls-2" d="M137.22,23.57v5.12h-16.26V10.42h15.67v5.12h-9.61v1.57h8.86v4.44h-8.86v2.02h10.2Z"/>
          <path class="cls-2" d="M7.29,38.93v2.02h8.86v4.44H7.29v6.69H1.23v-18.26h15.67v5.12H7.29Z"/>
          <path class="cls-2" d="M37.7,42.95c0,6.93-5.15,9.58-10.02,9.58s-10.02-2.64-10.02-9.58,5.15-9.58,10.02-9.58,10.02,2.64,10.02,9.58ZM31.74,42.95c0-3.39-2.16-4.46-4.06-4.46s-4.06,1.07-4.06,4.46,2.16,4.46,4.06,4.46,4.06-1.07,4.06-4.46Z"/>
          <path class="cls-2" d="M57.26,33.81v10.98c0,4.28-2.36,7.72-9.18,7.72s-9.18-3.44-9.18-7.72v-10.98h6.06v10.48c0,2.56,1.8,3.11,3.12,3.11s3.12-.54,3.12-3.11v-10.48h6.06Z"/>
          <path class="cls-2" d="M77.36,33.81v18.26h-6.06l-6.12-9.6v9.6h-6.06v-18.26h6.06s6.12,9.6,6.12,9.6v-9.6h6.06Z"/>
          <path class="cls-2" d="M97.87,42.95c0,7.75-6.11,9.12-10.05,9.12h-8.38v-18.26h8.38c3.94,0,10.05,1.39,10.05,9.14ZM91.63,42.95c0-3.46-2.63-4.02-4.91-4.02h-1.21v8.03h1.21c2.29,0,4.91-.55,4.91-4.01Z"/>
          <path class="cls-2" d="M118.63,52.08h-6.26l-.92-2.62h-7.07l-.92,2.62h-6.26l6.41-18.26h8.62l6.41,18.26ZM109.89,45.01l-1.98-5.64-1.98,5.64h3.96Z"/>
          <path class="cls-2" d="M134.18,33.81v5.12h-5.82v13.15h-6.06v-13.15h-5.82v-5.12h17.7Z"/>
          <path class="cls-2" d="M135.26,52.08v-18.26h6.06v18.26h-6.06Z"/>
          <path class="cls-2" d="M162.81,42.95c0,6.93-5.15,9.58-10.02,9.58s-10.02-2.64-10.02-9.58,5.15-9.58,10.02-9.58,10.02,2.64,10.02,9.58ZM156.85,42.95c0-3.39-2.16-4.46-4.06-4.46s-4.06,1.07-4.06,4.46,2.16,4.46,4.06,4.46,4.06-1.07,4.06-4.46Z"/>
          <path class="cls-2" d="M182.48,33.81v18.26h-6.06l-6.12-9.6v9.6h-6.06v-18.26h6.06s6.12,9.6,6.12,9.6v-9.6h6.06Z"/>
        </g>
        <g>
          <path class="cls-1" d="M157.68,20.11s3.33-6.29,6.29-8.88c2.96-2.59,4.4-3.52,4.23-4.16-.17-.64-1.56.15-2.34.68,0,0,.09-.61-.35-.78-.44-.17-.46.78-1.33,1.69-.87.91-6.14,4.79-7.62,5.9v-1.85c0-.37-.69-.61-.89-1.22-.21-.61.27-1.45-.63-2.46-1.65-1.67-4.62-2.74-6.61-.75-1.85,1.85-2.59,6.66,2.96,7.77,0,0-2.96,1.11-4.81,4.44-1.85,3.33-3.33,7.03-3.7,8.51-.37,1.48.37,2.22,1.11,1.48.74-.74.31-1.39.57-1.88.26-.49.47-.16.54.41.07.56.57.55.56-1.07s.92-4.11,2.77-5.96c1.85-1.85.88,1.25.94,2.2.06.95-.57,4.09-1.31,5.94,4.83-1.52,5.69,1.25,10.36,0,0,0-.37-2.22-1.11-5.55-.74-3.33,0-3.7.37-4.44"/>
          <path class="cls-1" d="M161.45,0s-.21.95-.35,1.37c-.14.42-.49,1.48-.28,2.39,0,0-.35-.7-1.05-1.19-.7-.49-.84-1.12-.84-1.69,0,0-.84,2.32,1.12,3.72,0,0-.7-.07-1.33-.07s-.77-.07-.98-.42c0,0,.14,1.97,2.18,1.76,0,0-.84.63-.91,1.55.18-.15,2.36-1.46,2.46-1.48.1.01,2.28,1.32,2.46,1.48-.07-.91-.91-1.55-.91-1.55,2.04.21,2.18-1.76,2.18-1.76-.21.35-.35.42-.98.42s-1.33.07-1.33.07c1.97-1.41,1.12-3.72,1.12-3.72,0,.56-.14,1.19-.84,1.69-.7.49-1.05,1.19-1.05,1.19.21-.91-.14-1.97-.28-2.39s-.35-1.37-.35-1.37"/>
          <path class="cls-1" d="M165.89,20.69s-3.33-6.29-6.29-8.88c-2.96-2.59-4.4-3.52-4.23-4.16.17-.64,1.56.15,2.34.68,0,0-.09-.61.35-.78.44-.17.46.78,1.33,1.69.87.91,6.14,4.79,7.62,5.9v-1.85c0-.37.69-.61.89-1.22.21-.61-.27-1.45.63-2.46,1.65-1.67,4.62-2.74,6.61-.75,1.85,1.85,2.59,6.66-2.96,7.77,0,0,2.96,1.11,4.81,4.44,1.85,3.33,3.33,7.03,3.7,8.51.37,1.48-.37,2.22-1.11,1.48-.74-.74-.31-1.39-.57-1.88-.26-.49-.47-.16-.54.4-.07.56-.57.55-.56-1.07.01-1.62-.92-4.11-2.77-5.96-1.85-1.85-.88,1.25-.94,2.2-.06.95.57,4.09,1.31,5.94,0,0-5.82-.82-10.36,0,0,0,.37-2.22,1.11-5.55.74-3.33,0-3.7-.37-4.44"/>
        </g>
      </g>
    </g>
  </g>
</svg>